<?xml version="1.0" standalone="no"?><!DOCTYPE svg PUBLIC "-//W3C//DTD SVG 1.1//EN" "http://www.w3.org/Graphics/SVG/1.1/DTD/svg11.dtd"><svg class="icon" width="200px" height="193.76px" viewBox="0 0 1057 1024" version="1.1" xmlns="http://www.w3.org/2000/svg"><path fill="#ffffff" d="M366.318257 1022.414421a526.213971 526.213971 0 0 1-192.40008-112.823843 33.69355 33.69355 0 0 1-10.851305-26.112501l6.391864-161.134448-140.670571-74.918599a33.644001 33.644001 0 0 1-17.094521-22.743146 548.362525 548.362525 0 0 1 0-225.30084 33.69355 33.69355 0 0 1 17.094521-22.743147L169.458736 301.719298l-6.391864-161.183997a33.594451 33.594451 0 0 1 10.851305-26.062952A526.213971 526.213971 0 0 1 366.318257 1.648506a32.653014 32.653014 0 0 1 27.747629 3.518003l134.476904 86.215849 134.526453-86.215849a32.553915 32.553915 0 0 1 27.747629-3.518003 526.26352 526.26352 0 0 1 192.350531 112.823843 33.69355 33.69355 0 0 1 10.851305 26.112502l-6.391865 161.134447 140.670571 74.918599a33.69355 33.69355 0 0 1 17.094522 22.743147 548.362525 548.362525 0 0 1 0 225.30084 33.644001 33.644001 0 0 1-17.094522 22.743146l-140.670571 74.918599 6.391865 161.183997a33.69355 33.69355 0 0 1-10.851305 26.062952 526.26352 526.26352 0 0 1-192.40008 112.823843 32.653014 32.653014 0 0 1-27.74763-3.518003l-134.476903-86.215848-134.526453 86.215848a32.553915 32.553915 0 0 1-27.74763 3.518003z m162.224533-309.336518a201.071214 201.071214 0 1 0-198.197353-201.021665 199.634283 199.634283 0 0 0 198.197353 200.972116z m0-66.990705A134.080509 134.080509 0 1 0 396.394705 512.056238a133.089522 133.089522 0 0 0 132.148085 134.080509z"  /></svg>